Coordinates
version=1
nRows=7
nColumns=40
inDegrees=yes

Units are S.I. units (second, meters, Newtons, ...)
If the header above contains a line with 'inDegrees', this indicates whether rotational values are in degrees (yes) or radians (no).

endheader
time	pelvis_tilt	pelvis_list	pelvis_rotation	pelvis_tx	pelvis_ty	pelvis_tz	hip_flexion_r	hip_adduction_r	hip_rotation_r	knee_angle_r	knee_angle_r_beta	ankle_angle_r	subtalar_angle_r	mtp_angle_r	hip_flexion_l	hip_adduction_l	hip_rotation_l	knee_angle_l	knee_angle_l_beta	ankle_angle_l	subtalar_angle_l	mtp_angle_l	lumbar_extension	lumbar_bending	lumbar_rotation	arm_flex_r	arm_add_r	arm_rot_r	elbow_flex_r	pro_sup_r	wrist_flex_r	wrist_dev_r	arm_flex_l	arm_add_l	arm_rot_l	elbow_flex_l	pro_sup_l	wrist_flex_l	wrist_dev_l
      6.09999999999999964473	     37.75010779262836280168	      1.69039794351257688376	   -177.88198211379389590547	      0.40027515624321718946	      0.77733385581837177725	     -0.57886581685457616508	     72.11738766601688155333	    -15.78008696525278509171	     -3.87338510091780863220	     31.16894074423027305443	      0.54400064034583006656	     -1.89619467450086465199	      0.00000000000000000000	      0.00000000000000000000	     74.72764958748184938031	    -11.95152570945614733944	      0.53439909577994670897	     34.55775841929703062760	      0.60314666652552428872	     -0.12079755389072992233	      0.00000000000000000000	      0.00000000000000000000	    -50.78924709426089378894	      0.22560228145717725612	      2.54973000619654532883	     63.50982457545505610597	    -26.10038642441157108465	     49.66201557060858817749	     28.33976050142302582913	     60.97614242042097743024	      0.00000000000000000000	      0.00000000000000000000	     71.16041878154555888614	     -2.65449840136230186260	      7.03973380356698008598	     14.14554241252083599534	     32.32887124646453003152	      0.00000000000000000000	      0.00000000000000000000
      6.10500000000000042633	     37.70469600160421208557	      1.90938017951393912419	   -177.70197974914063365759	      0.40028963950604717903	      0.77764526809081124803	     -0.57864906005187033422	     71.92231555960218258861	    -15.89322227133293452539	     -4.28788733464956894892	     31.06032855398599323848	      0.54210500001826489314	     -2.13778452982047273423	      0.00000000000000000000	      0.00000000000000000000	     74.72790569929766490986	    -11.84867519487885090257	      0.80997045271243517384	     34.47682082290971550265	      0.60173403897991539768	     -0.31694311153958332206	      0.00000000000000000000	      0.00000000000000000000	    -50.73780101243523432686	      0.52980797368661969315	      2.56333838282016435173	     63.20068710165924841249	    -25.74994947889013019449	     48.41678552328084350620	     28.19619536524427161339	     59.97931426922350084396	      0.00000000000000000000	      0.00000000000000000000	     70.91844008835921897571	     -2.77770756195853119053	      7.46365578823107433948	     14.34839195588007498827	     32.98015325906576578063	      0.00000000000000000000	      0.00000000000000000000
      6.11000000000000031974	     37.49960261288501328636	      1.88797386662373001265	   -177.71158107859341157564	      0.40011278672962019565	      0.77831339905242979960	     -0.57892584805855484831	     71.63086367603173698626	    -15.85024801737220023767	     -4.27748619295513154981	     30.96336355455520106261	      0.54041264151900314516	     -1.98572222452366653478	      0.00000000000000000000	      0.00000000000000000000	     74.41580082608817292567	    -11.91024896913483743788	      0.67099764649490378776	     34.33354035709997731374	      0.59923332309774435256	     -0.32038118698126616390	      0.00000000000000000000	      0.00000000000000000000	    -50.88335558140897774138	      0.53862000309453628155	      2.49143619478938171952	     64.58017643789456485592	    -26.61601922071963599592	     54.02128233430447323826	     27.82565966761194431456	     65.76590817640698105606	      0.00000000000000000000	      0.00000000000000000000	     71.06553939962066124281	     -2.46730485367021845633	      5.01970722863293783433	     14.50553708425203147669	     28.28331985868285869401	      0.00000000000000000000	      0.00000000000000000000
      6.11500000000000021316	     37.33164841052124671705	      1.93689423134190663589	   -177.65441904712128007304	      0.39990539386599066596	      0.77884355477300160064	     -0.57908100781326854456	     71.41108589099687264934	    -15.90916371234712123339	     -4.52870727260492422772	     30.96952003491016114367	      0.54052009237153153531	     -2.07965489566649752717	      0.00000000000000000000	      0.00000000000000000000	     74.19245029232344279535	    -11.92624798211439518525	      0.63149520930666513951	     34.22512898450815299611	      0.59734118769941069171	     -0.36259627249555842488	      0.00000000000000000000	      0.00000000000000000000	    -50.98395256887823734360	      0.57256352274697330795	      2.53167251056333109105	     63.93806137057788419042	    -26.30149534521653720276	     51.91071940804326345642	     27.94767944070322940320	     63.93575254853281109035	      0.00000000000000000000	      0.00000000000000000000	     71.05102522888648763910	     -2.52198473435341519178	      5.74546141934103626880	     14.35930254084018287131	     29.28840261370791253626	      0.00000000000000000000	      0.00000000000000000000
      6.12000000000000010658	     37.24578316501303021369	      1.93574884157991422562	   -177.65162412715224604653	      0.39988631373532124158	      0.77916263759446535708	     -0.57933630507780564667	     71.28365982779106957423	    -15.84428418568691299129	     -4.43091537834466109302	     30.88086816906591636211	      0.53897282542451319109	     -2.07890881816229322610	      0.00000000000000000000	      0.00000000000000000000	     74.06198672247882086594	    -11.96552300490773923514	      0.55086757815352449530	     34.15133321791371656673	      0.59605320859830446256	     -0.41747985434975332097	      0.00000000000000000000	      0.00000000000000000000	    -50.98605963970251764295	      0.58376539050267062247	      2.45561057262675852542	     64.53038666547789148353	    -26.58415986155186416795	     54.60741284710636733735	     27.77709608059880608266	     65.28899587200177734303	      0.00000000000000000000	      0.00000000000000000000	     70.95499047687663107808	     -2.54883869265367257739	      5.13015013232740813010	     14.56617181427588647580	     27.72203415779802426755	      0.00000000000000000000	      0.00000000000000000000
      6.12500000000000000000	     37.13381956425440222347	      2.25687515999001764300	   -177.41050573953523894488	      0.39979826595354117647	      0.77957869091319498267	     -0.57897363601020301882	     71.01297458464708256543	    -15.99080385154307748508	     -5.03956389193033427176	     30.85712145969120001610	      0.53855836715941018955	     -2.14854456053190556730	      0.00000000000000000000	      0.00000000000000000000	     74.00461284807002471098	    -11.82982380837703217935	      0.99761336202360328951	     34.02354648142634374608	      0.59382290930622139147	     -0.62330515759459503844	      0.00000000000000000000	      0.00000000000000000000	    -51.00635285141044050761	      1.01506668095661445328	      2.54530076064157251281	     63.92856470151379966183	    -26.13109661230419433764	     52.23518968854499888721	     27.73510767517537445315	     63.41035822462310989067	      0.00000000000000000000	      0.00000000000000000000	     70.67471380722444962430	     -2.65859595543426063813	      5.80499419827949392214	     14.78542539635507857554	     28.92191418807319891471	      0.00000000000000000000	      0.00000000000000000000
      6.12999999999999989342	     37.10790251287466645636	      2.56394884526633770605	   -177.06649645807493698157	      0.39979683091342865797	      0.77984775786353488503	     -0.57844895302675858328	     70.74985245499642871891	    -16.21005942052521930918	     -5.53065902447267010444	     30.69112712346077032066	      0.53566121945252664904	     -2.07510889465040682111	      0.00000000000000000000	      0.00000000000000000000	     73.98235606997148749997	    -11.54580792058081506468	      1.54175555857585355746	     33.76410063510539316667	      0.58929472505729763032	     -0.80338009563715095940	      0.00000000000000000000	      0.00000000000000000000	    -50.91853723223863426028	      1.50331634022418514363	      2.61196662136654955688	     63.26229101630093509812	    -25.74257681706504286012	     49.89831923040249961332	     27.60280993502043500598	     61.59000969197236230457	      0.00000000000000000000	      0.00000000000000000000	     70.30356062484575829785	     -2.76544181569648594987	      6.44673727568062293614	     15.22761685736731784857	     30.16373155502341418810	      0.00000000000000000000	      0.00000000000000000000
